<svg version="1.1" xmlns="http://www.w3.org/2000/svg" xmlns:xlink="http://www.w3.org/1999/xlink" x="0px" y="0px"
	 viewBox="0 0 72.975 41.532" style="fill: #2ea860;" xml:space="preserve">
<path d="M31.814,23.881c-1.366-1.769-3.222-3-5.568-3.691c1.962-0.884,3.434-2.193,4.413-3.922c0.981-1.731,1.472-3.578,1.472-5.538
	c0-1.307-0.222-2.585-0.663-3.837c-0.443-1.248-1.068-2.364-1.875-3.345s-1.788-1.778-2.941-2.394
	c-1.153-0.616-2.443-0.922-3.866-0.922H0v40.955h19.96c1.883,0,3.67-0.22,5.364-0.663c1.691-0.441,3.172-1.097,4.441-1.96
	c1.269-0.866,2.269-1.953,3-3.259c0.731-1.307,1.097-2.847,1.097-4.616C33.862,27.919,33.178,25.65,31.814,23.881z M9.46,8.307
	h9.634c1,0,1.854,0.366,2.566,1.095c0.712,0.731,1.068,1.771,1.068,3.116c0,1.462-0.405,2.538-1.212,3.231
	c-0.807,0.691-1.731,1.038-2.769,1.038H9.46V8.307z M23.017,31.956c-0.809,0.809-1.828,1.212-3.057,1.212H9.46v-8.941h10.903
	c1.116,0,2.038,0.443,2.769,1.326c0.729,0.886,1.095,1.962,1.095,3.231C24.227,30.093,23.824,31.15,23.017,31.956z"/>
<path d="M63.487,11.335c-0.712-0.712-1.49-1.288-2.335-1.731c-0.847-0.441-1.712-0.75-2.597-0.922
	c-0.884-0.174-1.75-0.259-2.597-0.259c-1.807,0-3.384,0.366-4.729,1.095c-1.347,0.731-2.462,1.674-3.347,2.828
	c-0.884,1.153-1.538,2.46-1.96,3.922c-0.424,1.462-0.634,2.941-0.634,4.441c0,1.616,0.25,3.172,0.75,4.672
	c0.498,1.5,1.22,2.826,2.163,3.981c0.941,1.153,2.076,2.066,3.403,2.739c1.326,0.674,2.816,1.009,4.47,1.009
	c0.847,0,1.722-0.104,2.625-0.316c0.903-0.212,1.769-0.538,2.597-0.981c0.826-0.441,1.585-1.019,2.278-1.731
	c0.691-0.71,1.248-1.585,1.672-2.625l7.729,4.559c-0.615,1.5-1.528,2.847-2.739,4.038c-1.212,1.191-2.606,2.191-4.184,2.998
	c-1.576,0.809-3.25,1.424-5.017,1.847c-1.771,0.422-3.5,0.634-5.193,0.634c-2.96,0-5.682-0.606-8.161-1.816
	c-2.481-1.212-4.616-2.816-6.403-4.816c-1.788-2-3.172-4.269-4.153-6.807c-0.981-2.54-1.472-5.116-1.472-7.731
	c0-2.46,0.462-4.911,1.384-7.354c0.924-2.441,2.269-4.623,4.038-6.547c1.769-1.922,3.922-3.479,6.462-4.672
	C50.076,0.597,52.96,0,56.189,0c3.845,0,7.182,0.828,10.01,2.479c2.826,1.655,4.932,3.809,6.316,6.462l-7.269,5.076
	C64.784,12.941,64.199,12.047,63.487,11.335L63.487,11.335z"/>
</svg>
